<svg xmlns="http://www.w3.org/2000/svg" xmlns:xlink="http://www.w3.org/1999/xlink" viewBox="0 0 101.87 130.83"><defs><style>.cls-1{fill:none;}.cls-2{isolation:isolate;}.cls-3{clip-path:url(#clip-path);}.cls-4{fill:#d3513c;}.cls-5{fill:#b73225;}.cls-6{fill:#f5cb3b;}.cls-14,.cls-7{fill:#ddaf2f;}.cls-8{fill:#c4aa90;}.cls-9{fill:#85674d;}.cls-10{fill:#a07c62;}.cls-11{fill:#b5947d;}.cls-12{fill:#a7d6d3;}.cls-13{fill:#c0e2de;}.cls-14{opacity:0.3;mix-blend-mode:multiply;}.cls-15{fill:#f37350;}.cls-16{fill:#b1d665;}</style><clipPath id="clip-path" transform="translate(-199.07 -184.58)"><polygon class="cls-1" points="246.95 190.98 287.5 190.98 287.5 226.77 245.07 226.77 246.95 190.98"/></clipPath></defs><title>house logo</title><g class="cls-2"><g id="OBJECTS"><g class="cls-3"><polygon class="cls-4" points="47.88 6.4 88.44 6.4 88.44 42.18 46 42.18 47.88 6.4"/><path class="cls-4" d="M239.39,227.43s.84,3.37,3.49,3.42a3.91,3.91,0,0,0,3.92-3.39l-2.92-1.56Z" transform="translate(-199.07 -184.58)"/><path class="cls-5" d="M243,231h-.09c-2.72,0-3.61-3.48-3.62-3.52l0-.11,4.67-1.58,3,1.62,0,.09A4,4,0,0,1,243,231Zm-3.43-3.46c.18.57,1.09,3.16,3.35,3.2H243a3.82,3.82,0,0,0,3.68-3.21L243.87,226Z" transform="translate(-199.07 -184.58)"/><path class="cls-4" d="M246.8,227.43s.84,3.37,3.5,3.42a3.91,3.91,0,0,0,3.91-3.39l-2.91-1.56Z" transform="translate(-199.07 -184.58)"/><path class="cls-5" d="M250.38,231h-.09c-2.72,0-3.61-3.48-3.62-3.52l0-.11,4.66-1.58,3.05,1.62,0,.09A4,4,0,0,1,250.38,231ZM247,227.52c.17.57,1.09,3.16,3.34,3.2h.09a3.84,3.84,0,0,0,3.68-3.21L251.29,226Z" transform="translate(-199.07 -184.58)"/><path class="cls-4" d="M254.21,227.43s.85,3.37,3.5,3.42a3.91,3.91,0,0,0,3.91-3.39l-2.91-1.56Z" transform="translate(-199.07 -184.58)"/><path class="cls-5" d="M257.8,231h-.09c-2.72,0-3.61-3.48-3.62-3.52l0-.11,4.66-1.58,3,1.62,0,.09A4,4,0,0,1,257.8,231Zm-3.43-3.46c.17.57,1.09,3.16,3.34,3.2h.09a3.84,3.84,0,0,0,3.68-3.21L258.7,226Z" transform="translate(-199.07 -184.58)"/><path class="cls-4" d="M261.62,227.43s.85,3.37,3.5,3.42a3.91,3.91,0,0,0,3.91-3.39l-2.91-1.56Z" transform="translate(-199.07 -184.58)"/><path class="cls-5" d="M265.21,231h-.09c-2.72,0-3.61-3.48-3.62-3.52l0-.11,4.66-1.58,3.05,1.62,0,.09A4,4,0,0,1,265.21,231Zm-3.43-3.46c.18.57,1.09,3.16,3.34,3.2h.09a3.82,3.82,0,0,0,3.68-3.21L266.11,226Z" transform="translate(-199.07 -184.58)"/><path class="cls-4" d="M269,227.43s.85,3.37,3.5,3.42a3.91,3.91,0,0,0,3.92-3.39l-2.92-1.56Z" transform="translate(-199.07 -184.58)"/><path class="cls-5" d="M272.62,231h-.09c-2.72,0-3.61-3.48-3.62-3.52l0-.11,4.66-1.58,3,1.62,0,.09A4,4,0,0,1,272.62,231Zm-3.43-3.46c.18.57,1.09,3.16,3.35,3.2h.08a3.82,3.82,0,0,0,3.68-3.21L273.52,226Z" transform="translate(-199.07 -184.58)"/><path class="cls-4" d="M276.45,227.43s.84,3.37,3.5,3.42a3.91,3.91,0,0,0,3.91-3.39L281,225.9Z" transform="translate(-199.07 -184.58)"/><path class="cls-5" d="M280,231h-.09c-2.72,0-3.61-3.48-3.62-3.52l0-.11,4.67-1.58,3,1.62,0,.09A4,4,0,0,1,280,231Zm-3.43-3.46c.18.57,1.1,3.16,3.35,3.2H280a3.82,3.82,0,0,0,3.68-3.21L280.93,226Z" transform="translate(-199.07 -184.58)"/><path class="cls-4" d="M283.86,227.43s.84,3.37,3.5,3.42a3.91,3.91,0,0,0,3.91-3.39l-2.91-1.56Z" transform="translate(-199.07 -184.58)"/><path class="cls-5" d="M287.44,231h-.09c-2.71,0-3.61-3.48-3.62-3.52l0-.11,4.66-1.58,3.05,1.62,0,.09A4,4,0,0,1,287.44,231ZM284,227.52c.17.57,1.09,3.16,3.34,3.2h.09a3.84,3.84,0,0,0,3.68-3.21L288.35,226Z" transform="translate(-199.07 -184.58)"/><path class="cls-4" d="M291.27,227.43s.85,3.37,3.5,3.42a3.91,3.91,0,0,0,3.91-3.39l-2.91-1.56Z" transform="translate(-199.07 -184.58)"/><path class="cls-5" d="M294.86,231h-.09c-2.72,0-3.61-3.48-3.62-3.52l0-.11,4.66-1.58,3.05,1.62,0,.09A4,4,0,0,1,294.86,231Zm-3.43-3.46c.17.57,1.09,3.16,3.34,3.2h.09a3.84,3.84,0,0,0,3.68-3.21L295.76,226Z" transform="translate(-199.07 -184.58)"/><path class="cls-4" d="M235.68,225s.85,3.37,3.5,3.42a3.91,3.91,0,0,0,3.91-3.4l-2.91-1.55Z" transform="translate(-199.07 -184.58)"/><path class="cls-5" d="M239.27,228.51h-.09c-2.72,0-3.62-3.48-3.62-3.52l0-.11,4.66-1.59,3.05,1.62,0,.1A4,4,0,0,1,239.27,228.51ZM235.84,225c.17.58,1.09,3.17,3.34,3.21h.09a3.84,3.84,0,0,0,3.68-3.2l-2.78-1.48Z" transform="translate(-199.07 -184.58)"/><path class="cls-4" d="M243.09,225s.85,3.37,3.5,3.42a3.91,3.91,0,0,0,3.91-3.4l-2.91-1.55Z" transform="translate(-199.07 -184.58)"/><path class="cls-5" d="M246.68,228.51h-.09c-2.72,0-3.61-3.48-3.62-3.52l0-.11,4.66-1.59,3.05,1.62,0,.1A4,4,0,0,1,246.68,228.51ZM243.25,225c.18.58,1.09,3.17,3.34,3.21h.09a3.83,3.83,0,0,0,3.68-3.2l-2.78-1.48Z" transform="translate(-199.07 -184.58)"/><path class="cls-4" d="M250.5,225s.85,3.37,3.5,3.42a3.91,3.91,0,0,0,3.92-3.4L255,223.43Z" transform="translate(-199.07 -184.58)"/><path class="cls-5" d="M254.09,228.51H254c-2.72,0-3.61-3.48-3.62-3.52l0-.11,4.66-1.59,3.05,1.62,0,.1A4,4,0,0,1,254.09,228.51ZM250.66,225c.18.58,1.09,3.17,3.35,3.21h.08a3.82,3.82,0,0,0,3.68-3.2L255,223.57Z" transform="translate(-199.07 -184.58)"/><path class="cls-4" d="M257.92,225s.84,3.37,3.49,3.42a3.91,3.91,0,0,0,3.92-3.4l-2.91-1.55Z" transform="translate(-199.07 -184.58)"/><path class="cls-5" d="M261.5,228.51h-.09c-2.72,0-3.61-3.48-3.62-3.52l0-.11,4.67-1.59,3,1.62,0,.1A4,4,0,0,1,261.5,228.51ZM258.07,225c.18.58,1.09,3.17,3.35,3.21h.08a3.82,3.82,0,0,0,3.68-3.2l-2.78-1.48Z" transform="translate(-199.07 -184.58)"/><path class="cls-4" d="M265.33,225s.84,3.37,3.5,3.42a3.91,3.91,0,0,0,3.91-3.4l-2.91-1.55Z" transform="translate(-199.07 -184.58)"/><path class="cls-5" d="M268.91,228.51h-.09c-2.71,0-3.61-3.48-3.62-3.52l0-.11,4.66-1.59,3.05,1.62,0,.1A4,4,0,0,1,268.91,228.51ZM265.49,225c.17.58,1.09,3.17,3.34,3.21h.09a3.84,3.84,0,0,0,3.68-3.2l-2.78-1.48Z" transform="translate(-199.07 -184.58)"/><path class="cls-4" d="M272.74,225s.85,3.37,3.5,3.42a3.91,3.91,0,0,0,3.91-3.4l-2.91-1.55Z" transform="translate(-199.07 -184.58)"/><path class="cls-5" d="M276.33,228.51h-.09c-2.72,0-3.61-3.48-3.62-3.52l0-.11,4.66-1.59,3.05,1.62,0,.1A4,4,0,0,1,276.33,228.51ZM272.9,225c.17.58,1.09,3.17,3.34,3.21h.09a3.84,3.84,0,0,0,3.68-3.2l-2.78-1.48Z" transform="translate(-199.07 -184.58)"/><path class="cls-4" d="M280.15,225s.85,3.37,3.5,3.42a3.93,3.93,0,0,0,3.92-3.4l-2.92-1.55Z" transform="translate(-199.07 -184.58)"/><path class="cls-5" d="M283.74,228.51h-.09c-2.72,0-3.61-3.48-3.62-3.52l0-.11,4.66-1.59,3,1.62,0,.1A4,4,0,0,1,283.74,228.51ZM280.31,225c.18.58,1.09,3.17,3.34,3.21h.09a3.82,3.82,0,0,0,3.68-3.2l-2.78-1.48Z" transform="translate(-199.07 -184.58)"/><path class="cls-4" d="M287.57,225s.84,3.37,3.49,3.42A3.91,3.91,0,0,0,295,225l-2.92-1.55Z" transform="translate(-199.07 -184.58)"/><path class="cls-5" d="M291.15,228.51h-.09c-2.72,0-3.61-3.48-3.62-3.52l0-.11,4.66-1.59,3.05,1.62,0,.1A4,4,0,0,1,291.15,228.51ZM287.72,225c.18.58,1.09,3.17,3.35,3.21a3.82,3.82,0,0,0,3.76-3.2l-2.78-1.48Z" transform="translate(-199.07 -184.58)"/><path class="cls-4" d="M239.39,222.49s.84,3.36,3.49,3.41a3.91,3.91,0,0,0,3.92-3.39L243.88,221Z" transform="translate(-199.07 -184.58)"/><path class="cls-5" d="M243,226h-.09c-2.72-.05-3.61-3.48-3.62-3.51l0-.12,4.67-1.58,3,1.62,0,.09A4,4,0,0,1,243,226Zm-3.43-3.46c.18.58,1.09,3.16,3.35,3.21H243a3.82,3.82,0,0,0,3.68-3.21l-2.78-1.47Z" transform="translate(-199.07 -184.58)"/><path class="cls-4" d="M246.8,222.49s.84,3.36,3.5,3.41a3.91,3.91,0,0,0,3.91-3.39L251.3,221Z" transform="translate(-199.07 -184.58)"/><path class="cls-5" d="M250.38,226h-.09c-2.72-.05-3.61-3.48-3.62-3.51l0-.12,4.66-1.58,3.05,1.62,0,.09A4,4,0,0,1,250.38,226ZM247,222.57c.17.58,1.09,3.16,3.34,3.21h.09a3.84,3.84,0,0,0,3.68-3.21l-2.78-1.47Z" transform="translate(-199.07 -184.58)"/><path class="cls-4" d="M254.21,222.49s.85,3.36,3.5,3.41a3.91,3.91,0,0,0,3.91-3.39L258.71,221Z" transform="translate(-199.07 -184.58)"/><path class="cls-5" d="M257.8,226h-.09c-2.72-.05-3.61-3.48-3.62-3.51l0-.12,4.66-1.58,3,1.62,0,.09A4,4,0,0,1,257.8,226Zm-3.43-3.46c.17.58,1.09,3.16,3.34,3.21h.09a3.84,3.84,0,0,0,3.68-3.21l-2.78-1.47Z" transform="translate(-199.07 -184.58)"/><path class="cls-4" d="M261.62,222.49s.85,3.36,3.5,3.41a3.91,3.91,0,0,0,3.91-3.39L266.12,221Z" transform="translate(-199.07 -184.58)"/><path class="cls-5" d="M265.21,226h-.09c-2.72-.05-3.61-3.48-3.62-3.51l0-.12,4.66-1.58,3.05,1.62,0,.09A4,4,0,0,1,265.21,226Zm-3.43-3.46c.18.58,1.09,3.16,3.34,3.21h.09a3.82,3.82,0,0,0,3.68-3.21l-2.78-1.47Z" transform="translate(-199.07 -184.58)"/><path class="cls-4" d="M269,222.49s.85,3.36,3.5,3.41a3.91,3.91,0,0,0,3.92-3.39L273.53,221Z" transform="translate(-199.07 -184.58)"/><path class="cls-5" d="M272.62,226h-.09c-2.72-.05-3.61-3.48-3.62-3.51l0-.12,4.66-1.58,3,1.62,0,.09A4,4,0,0,1,272.62,226Zm-3.43-3.46c.18.58,1.09,3.16,3.35,3.21h.08a3.82,3.82,0,0,0,3.68-3.21l-2.78-1.47Z" transform="translate(-199.07 -184.58)"/><path class="cls-4" d="M276.45,222.49s.84,3.36,3.5,3.41a3.91,3.91,0,0,0,3.91-3.39L281,221Z" transform="translate(-199.07 -184.58)"/><path class="cls-5" d="M280,226h-.09c-2.72-.05-3.61-3.48-3.62-3.51l0-.12,4.67-1.58,3,1.62,0,.09A4,4,0,0,1,280,226Zm-3.43-3.46c.18.58,1.1,3.16,3.35,3.21H280a3.82,3.82,0,0,0,3.68-3.21l-2.78-1.47Z" transform="translate(-199.07 -184.58)"/><path class="cls-4" d="M283.86,222.49s.84,3.36,3.5,3.41a3.91,3.91,0,0,0,3.91-3.39L288.36,221Z" transform="translate(-199.07 -184.58)"/><path class="cls-5" d="M287.44,226h-.09c-2.71-.05-3.61-3.48-3.62-3.51l0-.12,4.66-1.58,3.05,1.62,0,.09A4,4,0,0,1,287.44,226ZM284,222.57c.17.58,1.09,3.16,3.34,3.21h.09a3.84,3.84,0,0,0,3.68-3.21l-2.78-1.47Z" transform="translate(-199.07 -184.58)"/><path class="cls-4" d="M291.27,222.49s.85,3.36,3.5,3.41a3.91,3.91,0,0,0,3.91-3.39L295.77,221Z" transform="translate(-199.07 -184.58)"/><path class="cls-5" d="M294.86,226h-.09c-2.72-.05-3.61-3.48-3.62-3.51l0-.12,4.66-1.58,3.05,1.62,0,.09A4,4,0,0,1,294.86,226Zm-3.43-3.46c.17.58,1.09,3.16,3.34,3.21h.09a3.84,3.84,0,0,0,3.68-3.21l-2.78-1.47Z" transform="translate(-199.07 -184.58)"/><path class="cls-4" d="M235.68,220s.85,3.37,3.5,3.42a3.91,3.91,0,0,0,3.91-3.4l-2.91-1.55Z" transform="translate(-199.07 -184.58)"/><path class="cls-5" d="M239.27,223.56h-.09c-2.72-.05-3.62-3.48-3.62-3.52l0-.11,4.66-1.59,3.05,1.62,0,.1A4,4,0,0,1,239.27,223.56Zm-3.43-3.47c.17.58,1.09,3.17,3.34,3.21h.09a3.83,3.83,0,0,0,3.68-3.2l-2.78-1.48Z" transform="translate(-199.07 -184.58)"/><path class="cls-4" d="M243.09,220s.85,3.37,3.5,3.42a3.91,3.91,0,0,0,3.91-3.4l-2.91-1.55Z" transform="translate(-199.07 -184.58)"/><path class="cls-5" d="M246.68,223.56h-.09c-2.72-.05-3.61-3.48-3.62-3.52l0-.11,4.66-1.59,3.05,1.62,0,.1A4,4,0,0,1,246.68,223.56Zm-3.43-3.47c.18.58,1.09,3.17,3.34,3.21h.09a3.82,3.82,0,0,0,3.68-3.2l-2.78-1.48Z" transform="translate(-199.07 -184.58)"/><path class="cls-4" d="M250.5,220s.85,3.37,3.5,3.42a3.91,3.91,0,0,0,3.92-3.4L255,218.48Z" transform="translate(-199.07 -184.58)"/><path class="cls-5" d="M254.09,223.56H254c-2.72-.05-3.61-3.48-3.62-3.52l0-.11,4.66-1.59,3.05,1.62,0,.1A4,4,0,0,1,254.09,223.56Zm-3.43-3.47c.18.58,1.09,3.17,3.35,3.21h.08a3.81,3.81,0,0,0,3.68-3.2L255,218.62Z" transform="translate(-199.07 -184.58)"/><path class="cls-4" d="M257.92,220s.84,3.37,3.49,3.42a3.91,3.91,0,0,0,3.92-3.4l-2.91-1.55Z" transform="translate(-199.07 -184.58)"/><path class="cls-5" d="M261.5,223.56h-.09c-2.72-.05-3.61-3.48-3.62-3.52l0-.11,4.67-1.59,3,1.62,0,.1A4,4,0,0,1,261.5,223.56Zm-3.43-3.47c.18.58,1.09,3.17,3.35,3.21h.08a3.81,3.81,0,0,0,3.68-3.2l-2.78-1.48Z" transform="translate(-199.07 -184.58)"/><path class="cls-4" d="M265.33,220s.84,3.37,3.5,3.42a3.91,3.91,0,0,0,3.91-3.4l-2.91-1.55Z" transform="translate(-199.07 -184.58)"/><path class="cls-5" d="M268.91,223.56h-.09c-2.71-.05-3.61-3.48-3.62-3.52l0-.11,4.66-1.59,3.05,1.62,0,.1A4,4,0,0,1,268.91,223.56Zm-3.42-3.47c.17.58,1.09,3.17,3.34,3.21h.09a3.83,3.83,0,0,0,3.68-3.2l-2.78-1.48Z" transform="translate(-199.07 -184.58)"/><path class="cls-4" d="M272.74,220s.85,3.37,3.5,3.42a3.91,3.91,0,0,0,3.91-3.4l-2.91-1.55Z" transform="translate(-199.07 -184.58)"/><path class="cls-5" d="M276.33,223.56h-.09c-2.72-.05-3.61-3.48-3.62-3.52l0-.11,4.66-1.59L280.3,220l0,.1A4,4,0,0,1,276.33,223.56Zm-3.43-3.47c.17.58,1.09,3.17,3.34,3.21h.09a3.83,3.83,0,0,0,3.68-3.2l-2.78-1.48Z" transform="translate(-199.07 -184.58)"/><path class="cls-4" d="M280.15,220s.85,3.37,3.5,3.42a3.93,3.93,0,0,0,3.92-3.4l-2.92-1.55Z" transform="translate(-199.07 -184.58)"/><path class="cls-5" d="M283.74,223.56h-.09c-2.72-.05-3.61-3.48-3.62-3.52l0-.11,4.66-1.59,3,1.62,0,.1A4,4,0,0,1,283.74,223.56Zm-3.43-3.47c.18.58,1.09,3.17,3.34,3.21h.09a3.81,3.81,0,0,0,3.68-3.2l-2.78-1.48Z" transform="translate(-199.07 -184.58)"/><path class="cls-4" d="M287.57,220s.84,3.37,3.49,3.42A3.91,3.91,0,0,0,295,220l-2.92-1.55Z" transform="translate(-199.07 -184.58)"/><path class="cls-5" d="M291.15,223.56h-.09c-2.72-.05-3.61-3.48-3.62-3.52l0-.11,4.66-1.59,3.05,1.62,0,.1A4,4,0,0,1,291.15,223.56Zm-3.43-3.47c.18.58,1.09,3.17,3.35,3.21a3.82,3.82,0,0,0,3.76-3.2l-2.78-1.48Z" transform="translate(-199.07 -184.58)"/><path class="cls-4" d="M239.39,217.54s.84,3.37,3.49,3.42a3.92,3.92,0,0,0,3.92-3.4L243.88,216Z" transform="translate(-199.07 -184.58)"/><path class="cls-5" d="M243,221.08h-.09c-2.72-.05-3.61-3.48-3.62-3.51l0-.12,4.67-1.58,3,1.62,0,.09A4,4,0,0,1,243,221.08Zm-3.43-3.46c.18.58,1.09,3.17,3.35,3.21H243a3.82,3.82,0,0,0,3.68-3.2l-2.78-1.48Z" transform="translate(-199.07 -184.58)"/><path class="cls-4" d="M246.8,217.54s.84,3.37,3.5,3.42a3.91,3.91,0,0,0,3.91-3.4L251.3,216Z" transform="translate(-199.07 -184.58)"/><path class="cls-5" d="M250.38,221.08h-.09c-2.72-.05-3.61-3.48-3.62-3.51l0-.12,4.66-1.58,3.05,1.62,0,.09A4,4,0,0,1,250.38,221.08ZM247,217.62c.17.58,1.09,3.17,3.34,3.21h.09a3.84,3.84,0,0,0,3.68-3.2l-2.78-1.48Z" transform="translate(-199.07 -184.58)"/><path class="cls-4" d="M254.21,217.54s.85,3.37,3.5,3.42a3.91,3.91,0,0,0,3.91-3.4L258.71,216Z" transform="translate(-199.07 -184.58)"/><path class="cls-5" d="M257.8,221.08h-.09c-2.72-.05-3.61-3.48-3.62-3.51l0-.12,4.66-1.58,3,1.62,0,.09A4,4,0,0,1,257.8,221.08Zm-3.43-3.46c.17.58,1.09,3.17,3.34,3.21h.09a3.84,3.84,0,0,0,3.68-3.2l-2.78-1.48Z" transform="translate(-199.07 -184.58)"/><path class="cls-4" d="M261.62,217.54s.85,3.37,3.5,3.42a3.91,3.91,0,0,0,3.91-3.4L266.12,216Z" transform="translate(-199.07 -184.58)"/><path class="cls-5" d="M265.21,221.08h-.09c-2.72-.05-3.61-3.48-3.62-3.51l0-.12,4.66-1.58,3.05,1.62,0,.09A4,4,0,0,1,265.21,221.08Zm-3.43-3.46c.18.58,1.09,3.17,3.34,3.21h.09a3.82,3.82,0,0,0,3.68-3.2l-2.78-1.48Z" transform="translate(-199.07 -184.58)"/><path class="cls-4" d="M269,217.54s.85,3.37,3.5,3.42a3.92,3.92,0,0,0,3.92-3.4L273.53,216Z" transform="translate(-199.07 -184.58)"/><path class="cls-5" d="M272.62,221.08h-.09c-2.72-.05-3.61-3.48-3.62-3.51l0-.12,4.66-1.58,3,1.62,0,.09A4,4,0,0,1,272.62,221.08Zm-3.43-3.46c.18.58,1.09,3.17,3.35,3.21h.08a3.82,3.82,0,0,0,3.68-3.2l-2.78-1.48Z" transform="translate(-199.07 -184.58)"/><path class="cls-4" d="M276.45,217.54s.84,3.37,3.5,3.42a3.91,3.91,0,0,0,3.91-3.4L281,216Z" transform="translate(-199.07 -184.58)"/><path class="cls-5" d="M280,221.08h-.09c-2.72-.05-3.61-3.48-3.62-3.51l0-.12,4.67-1.58,3,1.62,0,.09A4,4,0,0,1,280,221.08Zm-3.43-3.46c.18.58,1.1,3.17,3.35,3.21H280a3.82,3.82,0,0,0,3.68-3.2l-2.78-1.48Z" transform="translate(-199.07 -184.58)"/><path class="cls-4" d="M283.86,217.54s.84,3.37,3.5,3.42a3.91,3.91,0,0,0,3.91-3.4L288.36,216Z" transform="translate(-199.07 -184.58)"/><path class="cls-5" d="M287.44,221.08h-.09c-2.71-.05-3.61-3.48-3.62-3.51l0-.12,4.66-1.58,3.05,1.62,0,.09A4,4,0,0,1,287.44,221.08ZM284,217.62c.17.58,1.09,3.17,3.34,3.21h.09a3.84,3.84,0,0,0,3.68-3.2l-2.78-1.48Z" transform="translate(-199.07 -184.58)"/><path class="cls-4" d="M291.27,217.54s.85,3.37,3.5,3.42a3.91,3.91,0,0,0,3.91-3.4L295.77,216Z" transform="translate(-199.07 -184.58)"/><path class="cls-5" d="M294.86,221.08h-.09c-2.72-.05-3.61-3.48-3.62-3.51l0-.12,4.66-1.58,3.05,1.62,0,.09A4,4,0,0,1,294.86,221.08Zm-3.43-3.46c.17.58,1.09,3.17,3.34,3.21h.09a3.84,3.84,0,0,0,3.68-3.2l-2.78-1.48Z" transform="translate(-199.07 -184.58)"/><path class="cls-4" d="M235.68,215.06s.85,3.37,3.5,3.42a3.91,3.91,0,0,0,3.91-3.4l-2.91-1.55Z" transform="translate(-199.07 -184.58)"/><path class="cls-5" d="M239.27,218.61h-.09c-2.72-.05-3.62-3.48-3.62-3.52l0-.11,4.66-1.58,3.05,1.62,0,.09A4,4,0,0,1,239.27,218.61Zm-3.43-3.46c.17.57,1.09,3.16,3.34,3.2h.09a3.83,3.83,0,0,0,3.68-3.2l-2.78-1.48Z" transform="translate(-199.07 -184.58)"/><path class="cls-4" d="M243.09,215.06s.85,3.37,3.5,3.42a3.91,3.91,0,0,0,3.91-3.4l-2.91-1.55Z" transform="translate(-199.07 -184.58)"/><path class="cls-5" d="M246.68,218.61h-.09c-2.72-.05-3.61-3.48-3.62-3.52l0-.11,4.66-1.58,3.05,1.62,0,.09A4,4,0,0,1,246.68,218.61Zm-3.43-3.46c.18.57,1.09,3.16,3.34,3.2h.09a3.82,3.82,0,0,0,3.68-3.2l-2.78-1.48Z" transform="translate(-199.07 -184.58)"/><path class="cls-4" d="M250.5,215.06s.85,3.37,3.5,3.42a3.91,3.91,0,0,0,3.92-3.4L255,213.53Z" transform="translate(-199.07 -184.58)"/><path class="cls-5" d="M254.09,218.61H254c-2.72-.05-3.61-3.48-3.62-3.52l0-.11L255,213.4l3.05,1.62,0,.09A4,4,0,0,1,254.09,218.61Zm-3.43-3.46c.18.57,1.09,3.16,3.35,3.2h.08a3.81,3.81,0,0,0,3.68-3.2L255,213.67Z" transform="translate(-199.07 -184.58)"/><path class="cls-4" d="M257.92,215.06s.84,3.37,3.49,3.42a3.91,3.91,0,0,0,3.92-3.4l-2.91-1.55Z" transform="translate(-199.07 -184.58)"/><path class="cls-5" d="M261.5,218.61h-.09c-2.72-.05-3.61-3.48-3.62-3.52l0-.11,4.67-1.58,3,1.62,0,.09A4,4,0,0,1,261.5,218.61Zm-3.43-3.46c.18.57,1.09,3.16,3.35,3.2h.08a3.81,3.81,0,0,0,3.68-3.2l-2.78-1.48Z" transform="translate(-199.07 -184.58)"/><path class="cls-4" d="M265.33,215.06s.84,3.37,3.5,3.42a3.91,3.91,0,0,0,3.91-3.4l-2.91-1.55Z" transform="translate(-199.07 -184.58)"/><path class="cls-5" d="M268.91,218.61h-.09c-2.71-.05-3.61-3.48-3.62-3.52l0-.11,4.66-1.58,3.05,1.62,0,.09A4,4,0,0,1,268.91,218.61Zm-3.42-3.46c.17.57,1.09,3.16,3.34,3.2h.09a3.83,3.83,0,0,0,3.68-3.2l-2.78-1.48Z" transform="translate(-199.07 -184.58)"/><path class="cls-4" d="M272.74,215.06s.85,3.37,3.5,3.42a3.91,3.91,0,0,0,3.91-3.4l-2.91-1.55Z" transform="translate(-199.07 -184.58)"/><path class="cls-5" d="M276.33,218.61h-.09c-2.72-.05-3.61-3.48-3.62-3.52l0-.11,4.66-1.58L280.3,215l0,.09A4,4,0,0,1,276.33,218.61Zm-3.43-3.46c.17.57,1.09,3.16,3.34,3.2h.09a3.83,3.83,0,0,0,3.68-3.2l-2.78-1.48Z" transform="translate(-199.07 -184.58)"/><path class="cls-4" d="M280.15,215.06s.85,3.37,3.5,3.42a3.93,3.93,0,0,0,3.92-3.4l-2.92-1.55Z" transform="translate(-199.07 -184.58)"/><path class="cls-5" d="M283.74,218.61h-.09c-2.72-.05-3.61-3.48-3.62-3.52l0-.11,4.66-1.58,3,1.62,0,.09A4,4,0,0,1,283.74,218.61Zm-3.43-3.46c.18.57,1.09,3.16,3.34,3.2h.09a3.81,3.81,0,0,0,3.68-3.2l-2.78-1.48Z" transform="translate(-199.07 -184.58)"/><path class="cls-4" d="M287.57,215.06s.84,3.37,3.49,3.42a3.91,3.91,0,0,0,3.92-3.4l-2.92-1.55Z" transform="translate(-199.07 -184.58)"/><path class="cls-5" d="M291.15,218.61h-.09c-2.72-.05-3.61-3.48-3.62-3.52l0-.11,4.66-1.58,3.05,1.62,0,.09A4,4,0,0,1,291.15,218.61Zm-3.43-3.46c.18.57,1.09,3.16,3.35,3.2h.08a3.81,3.81,0,0,0,3.68-3.2l-2.78-1.48Z" transform="translate(-199.07 -184.58)"/><path class="cls-4" d="M239.39,212.59s.84,3.37,3.49,3.42a3.92,3.92,0,0,0,3.92-3.4l-2.92-1.55Z" transform="translate(-199.07 -184.58)"/><path class="cls-5" d="M243,216.14h-.09c-2.72-.06-3.61-3.48-3.62-3.52l0-.11,4.67-1.59,3,1.62,0,.1A4,4,0,0,1,243,216.14Zm-3.43-3.47c.18.58,1.09,3.17,3.35,3.21H243a3.82,3.82,0,0,0,3.68-3.2l-2.78-1.48Z" transform="translate(-199.07 -184.58)"/><path class="cls-4" d="M246.8,212.59s.84,3.37,3.5,3.42a3.91,3.91,0,0,0,3.91-3.4l-2.91-1.55Z" transform="translate(-199.07 -184.58)"/><path class="cls-5" d="M250.38,216.14h-.09c-2.72-.06-3.61-3.48-3.62-3.52l0-.11,4.66-1.59,3.05,1.62,0,.1A4,4,0,0,1,250.38,216.14ZM247,212.67c.17.58,1.09,3.17,3.34,3.21h.09a3.84,3.84,0,0,0,3.68-3.2l-2.78-1.48Z" transform="translate(-199.07 -184.58)"/><path class="cls-4" d="M254.21,212.59s.85,3.37,3.5,3.42a3.91,3.91,0,0,0,3.91-3.4l-2.91-1.55Z" transform="translate(-199.07 -184.58)"/><path class="cls-5" d="M257.8,216.14h-.09c-2.72-.06-3.61-3.48-3.62-3.52l0-.11,4.66-1.59,3,1.62,0,.1A4,4,0,0,1,257.8,216.14Zm-3.43-3.47c.17.58,1.09,3.17,3.34,3.21h.09a3.84,3.84,0,0,0,3.68-3.2l-2.78-1.48Z" transform="translate(-199.07 -184.58)"/><path class="cls-4" d="M261.62,212.59s.85,3.37,3.5,3.42a3.91,3.91,0,0,0,3.91-3.4l-2.91-1.55Z" transform="translate(-199.07 -184.58)"/><path class="cls-5" d="M265.21,216.14h-.09c-2.72-.06-3.61-3.48-3.62-3.52l0-.11,4.66-1.59,3.05,1.62,0,.1A4,4,0,0,1,265.21,216.14Zm-3.43-3.47c.18.58,1.09,3.17,3.34,3.21h.09a3.82,3.82,0,0,0,3.68-3.2l-2.78-1.48Z" transform="translate(-199.07 -184.58)"/><path class="cls-4" d="M269,212.59s.85,3.37,3.5,3.42a3.92,3.92,0,0,0,3.92-3.4l-2.92-1.55Z" transform="translate(-199.07 -184.58)"/><path class="cls-5" d="M272.62,216.14h-.09c-2.72-.06-3.61-3.48-3.62-3.52l0-.11,4.66-1.59,3,1.62,0,.1A4,4,0,0,1,272.62,216.14Zm-3.43-3.47c.18.58,1.09,3.17,3.35,3.21h.08a3.82,3.82,0,0,0,3.68-3.2l-2.78-1.48Z" transform="translate(-199.07 -184.58)"/><path class="cls-4" d="M276.45,212.59s.84,3.37,3.5,3.42a3.91,3.91,0,0,0,3.91-3.4L281,211.06Z" transform="translate(-199.07 -184.58)"/><path class="cls-5" d="M280,216.14h-.09c-2.72-.06-3.61-3.48-3.62-3.52l0-.11,4.67-1.59,3,1.62,0,.1A4,4,0,0,1,280,216.14Zm-3.43-3.47c.18.58,1.1,3.17,3.35,3.21H280a3.82,3.82,0,0,0,3.68-3.2l-2.78-1.48Z" transform="translate(-199.07 -184.58)"/><path class="cls-4" d="M283.86,212.59s.84,3.37,3.5,3.42a3.91,3.91,0,0,0,3.91-3.4l-2.91-1.55Z" transform="translate(-199.07 -184.58)"/><path class="cls-5" d="M287.44,216.14h-.09c-2.71-.06-3.61-3.48-3.62-3.52l0-.11,4.66-1.59,3.05,1.62,0,.1A4,4,0,0,1,287.44,216.14ZM284,212.67c.17.58,1.09,3.17,3.34,3.21h.09a3.84,3.84,0,0,0,3.68-3.2l-2.78-1.48Z" transform="translate(-199.07 -184.58)"/><path class="cls-4" d="M291.27,212.59s.85,3.37,3.5,3.42a3.91,3.91,0,0,0,3.91-3.4l-2.91-1.55Z" transform="translate(-199.07 -184.58)"/><path class="cls-5" d="M294.86,216.14h-.09c-2.72-.06-3.61-3.48-3.62-3.52l0-.11,4.66-1.59,3.05,1.62,0,.1A4,4,0,0,1,294.86,216.14Zm-3.43-3.47c.17.58,1.09,3.17,3.34,3.21h.09a3.84,3.84,0,0,0,3.68-3.2l-2.78-1.48Z" transform="translate(-199.07 -184.58)"/><path class="cls-4" d="M235.68,210.12s.85,3.36,3.5,3.41a3.91,3.91,0,0,0,3.91-3.39l-2.91-1.55Z" transform="translate(-199.07 -184.58)"/><path class="cls-5" d="M239.27,213.66h-.09c-2.72,0-3.62-3.48-3.62-3.51l0-.12,4.66-1.58,3.05,1.62,0,.09A4,4,0,0,1,239.27,213.66Zm-3.43-3.46c.17.58,1.09,3.16,3.34,3.21h.09A3.84,3.84,0,0,0,243,210.2l-2.78-1.47Z" transform="translate(-199.07 -184.58)"/><path class="cls-4" d="M243.09,210.12s.85,3.36,3.5,3.41a3.91,3.91,0,0,0,3.91-3.39l-2.91-1.55Z" transform="translate(-199.07 -184.58)"/><path class="cls-5" d="M246.68,213.66h-.09c-2.72,0-3.61-3.48-3.62-3.51l0-.12,4.66-1.58,3.05,1.62,0,.09A4,4,0,0,1,246.68,213.66Zm-3.43-3.46c.18.58,1.09,3.16,3.34,3.21h.09a3.83,3.83,0,0,0,3.68-3.21l-2.78-1.47Z" transform="translate(-199.07 -184.58)"/><path class="cls-4" d="M250.5,210.12s.85,3.36,3.5,3.41a3.91,3.91,0,0,0,3.92-3.39L255,208.59Z" transform="translate(-199.07 -184.58)"/><path class="cls-5" d="M254.09,213.66H254c-2.72,0-3.61-3.48-3.62-3.51l0-.12,4.66-1.58,3.05,1.62,0,.09A4,4,0,0,1,254.09,213.66Zm-3.43-3.46c.18.58,1.09,3.16,3.35,3.21h.08a3.82,3.82,0,0,0,3.68-3.21L255,208.73Z" transform="translate(-199.07 -184.58)"/><path class="cls-4" d="M257.92,210.12s.84,3.36,3.49,3.41a3.91,3.91,0,0,0,3.92-3.39l-2.91-1.55Z" transform="translate(-199.07 -184.58)"/><path class="cls-5" d="M261.5,213.66h-.09c-2.72,0-3.61-3.48-3.62-3.51l0-.12,4.67-1.58,3,1.62,0,.09A4,4,0,0,1,261.5,213.66Zm-3.43-3.46c.18.58,1.09,3.16,3.35,3.21h.08a3.82,3.82,0,0,0,3.68-3.21l-2.78-1.47Z" transform="translate(-199.07 -184.58)"/><path class="cls-4" d="M265.33,210.12s.84,3.36,3.5,3.41a3.91,3.91,0,0,0,3.91-3.39l-2.91-1.55Z" transform="translate(-199.07 -184.58)"/><path class="cls-5" d="M268.91,213.66h-.09c-2.71,0-3.61-3.48-3.62-3.51l0-.12,4.66-1.58,3.05,1.62,0,.09A4,4,0,0,1,268.91,213.66Zm-3.42-3.46c.17.58,1.09,3.16,3.34,3.21h.09a3.84,3.84,0,0,0,3.68-3.21l-2.78-1.47Z" transform="translate(-199.07 -184.58)"/><path class="cls-4" d="M272.74,210.12s.85,3.36,3.5,3.41a3.91,3.91,0,0,0,3.91-3.39l-2.91-1.55Z" transform="translate(-199.07 -184.58)"/><path class="cls-5" d="M276.33,213.66h-.09c-2.72,0-3.61-3.48-3.62-3.51l0-.12,4.66-1.58,3.05,1.62,0,.09A4,4,0,0,1,276.33,213.66Zm-3.43-3.46c.17.58,1.09,3.16,3.34,3.21h.09A3.84,3.84,0,0,0,280,210.2l-2.78-1.47Z" transform="translate(-199.07 -184.58)"/><path class="cls-4" d="M280.15,210.12s.85,3.36,3.5,3.41a3.93,3.93,0,0,0,3.92-3.39l-2.92-1.55Z" transform="translate(-199.07 -184.58)"/><path class="cls-5" d="M283.74,213.66h-.09c-2.72,0-3.61-3.48-3.62-3.51l0-.12,4.66-1.58,3,1.62,0,.09A4,4,0,0,1,283.74,213.66Zm-3.43-3.46c.18.58,1.09,3.16,3.34,3.21h.09a3.82,3.82,0,0,0,3.68-3.21l-2.78-1.47Z" transform="translate(-199.07 -184.58)"/><path class="cls-4" d="M287.57,210.12s.84,3.36,3.49,3.41a3.91,3.91,0,0,0,3.92-3.39l-2.92-1.55Z" transform="translate(-199.07 -184.58)"/><path class="cls-5" d="M291.15,213.66h-.09c-2.72,0-3.61-3.48-3.62-3.51l0-.12,4.66-1.58,3.05,1.62,0,.09A4,4,0,0,1,291.15,213.66Zm-3.43-3.46c.18.58,1.09,3.16,3.35,3.21a3.82,3.82,0,0,0,3.76-3.21l-2.78-1.47Z" transform="translate(-199.07 -184.58)"/><path class="cls-4" d="M239.39,207.64s.84,3.37,3.49,3.42a3.91,3.91,0,0,0,3.92-3.4l-2.92-1.55Z" transform="translate(-199.07 -184.58)"/><path class="cls-5" d="M243,211.19h-.09c-2.72-.05-3.61-3.48-3.62-3.52l0-.11L243.9,206l3,1.62,0,.1A4,4,0,0,1,243,211.19Zm-3.43-3.47c.18.58,1.09,3.17,3.35,3.21H243a3.81,3.81,0,0,0,3.68-3.2l-2.78-1.48Z" transform="translate(-199.07 -184.58)"/><path class="cls-4" d="M246.8,207.64s.84,3.37,3.5,3.42a3.91,3.91,0,0,0,3.91-3.4l-2.91-1.55Z" transform="translate(-199.07 -184.58)"/><path class="cls-5" d="M250.38,211.19h-.09c-2.72-.05-3.61-3.48-3.62-3.52l0-.11,4.66-1.59,3.05,1.62,0,.1A4,4,0,0,1,250.38,211.19ZM247,207.72c.17.58,1.09,3.17,3.34,3.21h.09a3.83,3.83,0,0,0,3.68-3.2l-2.78-1.48Z" transform="translate(-199.07 -184.58)"/><path class="cls-4" d="M254.21,207.64s.85,3.37,3.5,3.42a3.91,3.91,0,0,0,3.91-3.4l-2.91-1.55Z" transform="translate(-199.07 -184.58)"/><path class="cls-5" d="M257.8,211.19h-.09c-2.72-.05-3.61-3.48-3.62-3.52l0-.11,4.66-1.59,3,1.62,0,.1A4,4,0,0,1,257.8,211.19Zm-3.43-3.47c.17.58,1.09,3.17,3.34,3.21h.09a3.83,3.83,0,0,0,3.68-3.2l-2.78-1.48Z" transform="translate(-199.07 -184.58)"/><path class="cls-4" d="M261.62,207.64s.85,3.37,3.5,3.42a3.91,3.91,0,0,0,3.91-3.4l-2.91-1.55Z" transform="translate(-199.07 -184.58)"/><path class="cls-5" d="M265.21,211.19h-.09c-2.72-.05-3.61-3.48-3.62-3.52l0-.11,4.66-1.59,3.05,1.62,0,.1A4,4,0,0,1,265.21,211.19Zm-3.43-3.47c.18.58,1.09,3.17,3.34,3.21h.09a3.81,3.81,0,0,0,3.68-3.2l-2.78-1.48Z" transform="translate(-199.07 -184.58)"/><path class="cls-4" d="M269,207.64s.85,3.37,3.5,3.42a3.91,3.91,0,0,0,3.92-3.4l-2.92-1.55Z" transform="translate(-199.07 -184.58)"/><path class="cls-5" d="M272.62,211.19h-.09c-2.72-.05-3.61-3.48-3.62-3.52l0-.11,4.66-1.59,3,1.62,0,.1A4,4,0,0,1,272.62,211.19Zm-3.43-3.47c.18.58,1.09,3.17,3.35,3.21h.08a3.81,3.81,0,0,0,3.68-3.2l-2.78-1.48Z" transform="translate(-199.07 -184.58)"/><path class="cls-4" d="M276.45,207.64s.84,3.37,3.5,3.42a3.91,3.91,0,0,0,3.91-3.4L281,206.11Z" transform="translate(-199.07 -184.58)"/><path class="cls-5" d="M280,211.19h-.09c-2.72-.05-3.61-3.48-3.62-3.52l0-.11L281,206l3,1.62,0,.1A4,4,0,0,1,280,211.19Zm-3.43-3.47c.18.58,1.1,3.17,3.35,3.21H280a3.81,3.81,0,0,0,3.68-3.2l-2.78-1.48Z" transform="translate(-199.07 -184.58)"/><path class="cls-4" d="M283.86,207.64s.84,3.37,3.5,3.42a3.91,3.91,0,0,0,3.91-3.4l-2.91-1.55Z" transform="translate(-199.07 -184.58)"/><path class="cls-5" d="M287.44,211.19h-.09c-2.71-.05-3.61-3.48-3.62-3.52l0-.11,4.66-1.59,3.05,1.62,0,.1A4,4,0,0,1,287.44,211.19ZM284,207.72c.17.58,1.09,3.17,3.34,3.21h.09a3.83,3.83,0,0,0,3.68-3.2l-2.78-1.48Z" transform="translate(-199.07 -184.58)"/><path class="cls-4" d="M291.27,207.64s.85,3.37,3.5,3.42a3.91,3.91,0,0,0,3.91-3.4l-2.91-1.55Z" transform="translate(-199.07 -184.58)"/><path class="cls-5" d="M294.86,211.19h-.09c-2.72-.05-3.61-3.48-3.62-3.52l0-.11,4.66-1.59,3.05,1.62,0,.1A4,4,0,0,1,294.86,211.19Zm-3.43-3.47c.17.58,1.09,3.17,3.34,3.21h.09a3.83,3.83,0,0,0,3.68-3.2l-2.78-1.48Z" transform="translate(-199.07 -184.58)"/><path class="cls-4" d="M235.68,205.17s.85,3.37,3.5,3.42a3.92,3.92,0,0,0,3.91-3.4l-2.91-1.55Z" transform="translate(-199.07 -184.58)"/><path class="cls-5" d="M239.27,208.71h-.09c-2.72-.05-3.62-3.48-3.62-3.51l0-.12,4.66-1.58,3.05,1.62,0,.09A4,4,0,0,1,239.27,208.71Zm-3.43-3.46c.17.58,1.09,3.17,3.34,3.21h.09a3.84,3.84,0,0,0,3.68-3.2l-2.78-1.48Z" transform="translate(-199.07 -184.58)"/><path class="cls-4" d="M243.09,205.17s.85,3.37,3.5,3.42a3.92,3.92,0,0,0,3.91-3.4l-2.91-1.55Z" transform="translate(-199.07 -184.58)"/><path class="cls-5" d="M246.68,208.71h-.09c-2.72-.05-3.61-3.48-3.62-3.51l0-.12,4.66-1.58,3.05,1.62,0,.09A4,4,0,0,1,246.68,208.71Zm-3.43-3.46c.18.58,1.09,3.17,3.34,3.21h.09a3.83,3.83,0,0,0,3.68-3.2l-2.78-1.48Z" transform="translate(-199.07 -184.58)"/><path class="cls-4" d="M250.5,205.17s.85,3.37,3.5,3.42a3.93,3.93,0,0,0,3.92-3.4L255,203.64Z" transform="translate(-199.07 -184.58)"/><path class="cls-5" d="M254.09,208.71H254c-2.72-.05-3.61-3.48-3.62-3.51l0-.12L255,203.5l3.05,1.62,0,.09A4,4,0,0,1,254.09,208.71Zm-3.43-3.46c.18.58,1.09,3.17,3.35,3.21h.08a3.82,3.82,0,0,0,3.68-3.2L255,203.78Z" transform="translate(-199.07 -184.58)"/><path class="cls-4" d="M257.92,205.17s.84,3.37,3.49,3.42a3.93,3.93,0,0,0,3.92-3.4l-2.91-1.55Z" transform="translate(-199.07 -184.58)"/><path class="cls-5" d="M261.5,208.71h-.09c-2.72-.05-3.61-3.48-3.62-3.51l0-.12,4.67-1.58,3,1.62,0,.09A4,4,0,0,1,261.5,208.71Zm-3.43-3.46c.18.58,1.09,3.17,3.35,3.21h.08a3.82,3.82,0,0,0,3.68-3.2l-2.78-1.48Z" transform="translate(-199.07 -184.58)"/><path class="cls-4" d="M265.33,205.17s.84,3.37,3.5,3.42a3.92,3.92,0,0,0,3.91-3.4l-2.91-1.55Z" transform="translate(-199.07 -184.58)"/><path class="cls-5" d="M268.91,208.71h-.09c-2.71-.05-3.61-3.48-3.62-3.51l0-.12,4.66-1.58,3.05,1.62,0,.09A4,4,0,0,1,268.91,208.71Zm-3.42-3.46c.17.58,1.09,3.17,3.34,3.21h.09a3.84,3.84,0,0,0,3.68-3.2l-2.78-1.48Z" transform="translate(-199.07 -184.58)"/><path class="cls-4" d="M272.74,205.17s.85,3.37,3.5,3.42a3.92,3.92,0,0,0,3.91-3.4l-2.91-1.55Z" transform="translate(-199.07 -184.58)"/><path class="cls-5" d="M276.33,208.71h-.09c-2.72-.05-3.61-3.48-3.62-3.51l0-.12,4.66-1.58,3.05,1.62,0,.09A4,4,0,0,1,276.33,208.71Zm-3.43-3.46c.17.58,1.09,3.17,3.34,3.21h.09a3.84,3.84,0,0,0,3.68-3.2l-2.78-1.48Z" transform="translate(-199.07 -184.58)"/><path class="cls-4" d="M280.15,205.17s.85,3.37,3.5,3.42a3.94,3.94,0,0,0,3.92-3.4l-2.92-1.55Z" transform="translate(-199.07 -184.58)"/><path class="cls-5" d="M283.74,208.71h-.09c-2.72-.05-3.61-3.48-3.62-3.51l0-.12,4.66-1.58,3,1.62,0,.09A4,4,0,0,1,283.74,208.71Zm-3.43-3.46c.18.58,1.09,3.17,3.34,3.21h.09a3.82,3.82,0,0,0,3.68-3.2l-2.78-1.48Z" transform="translate(-199.07 -184.58)"/><path class="cls-4" d="M287.57,205.17s.84,3.37,3.49,3.42a3.93,3.93,0,0,0,3.92-3.4l-2.92-1.55Z" transform="translate(-199.07 -184.58)"/><path class="cls-5" d="M291.15,208.71h-.09c-2.72-.05-3.61-3.48-3.62-3.51l0-.12,4.66-1.58,3.05,1.62,0,.09A4,4,0,0,1,291.15,208.71Zm-3.43-3.46c.18.58,1.09,3.17,3.35,3.21a3.82,3.82,0,0,0,3.76-3.2l-2.78-1.48Z" transform="translate(-199.07 -184.58)"/><path class="cls-4" d="M239.39,202.69s.84,3.37,3.49,3.42a3.91,3.91,0,0,0,3.92-3.4l-2.92-1.55Z" transform="translate(-199.07 -184.58)"/><path class="cls-5" d="M243,206.24h-.09c-2.72-.05-3.61-3.48-3.62-3.52l0-.11L243.9,201l3,1.62,0,.09A4,4,0,0,1,243,206.24Zm-3.43-3.47c.18.58,1.09,3.17,3.35,3.21H243a3.81,3.81,0,0,0,3.68-3.2l-2.78-1.48Z" transform="translate(-199.07 -184.58)"/><path class="cls-4" d="M246.8,202.69s.84,3.37,3.5,3.42a3.91,3.91,0,0,0,3.91-3.4l-2.91-1.55Z" transform="translate(-199.07 -184.58)"/><path class="cls-5" d="M250.38,206.24h-.09c-2.72-.05-3.61-3.48-3.62-3.52l0-.11,4.66-1.58,3.05,1.62,0,.09A4,4,0,0,1,250.38,206.24ZM247,202.77c.17.58,1.09,3.17,3.34,3.21h.09a3.83,3.83,0,0,0,3.68-3.2l-2.78-1.48Z" transform="translate(-199.07 -184.58)"/><path class="cls-4" d="M254.21,202.69s.85,3.37,3.5,3.42a3.91,3.91,0,0,0,3.91-3.4l-2.91-1.55Z" transform="translate(-199.07 -184.58)"/><path class="cls-5" d="M257.8,206.24h-.09c-2.72-.05-3.61-3.48-3.62-3.52l0-.11,4.66-1.58,3,1.62,0,.09A4,4,0,0,1,257.8,206.24Zm-3.43-3.47c.17.58,1.09,3.17,3.34,3.21h.09a3.83,3.83,0,0,0,3.68-3.2l-2.78-1.48Z" transform="translate(-199.07 -184.58)"/><path class="cls-4" d="M261.62,202.69s.85,3.37,3.5,3.42a3.91,3.91,0,0,0,3.91-3.4l-2.91-1.55Z" transform="translate(-199.07 -184.58)"/><path class="cls-5" d="M265.21,206.24h-.09c-2.72-.05-3.61-3.48-3.62-3.52l0-.11,4.66-1.58,3.05,1.62,0,.09A4,4,0,0,1,265.21,206.24Zm-3.43-3.47c.18.58,1.09,3.17,3.34,3.21h.09a3.81,3.81,0,0,0,3.68-3.2l-2.78-1.48Z" transform="translate(-199.07 -184.58)"/><path class="cls-4" d="M269,202.69s.85,3.37,3.5,3.42a3.91,3.91,0,0,0,3.92-3.4l-2.92-1.55Z" transform="translate(-199.07 -184.58)"/><path class="cls-5" d="M272.62,206.24h-.09c-2.72-.05-3.61-3.48-3.62-3.52l0-.11,4.66-1.58,3,1.62,0,.09A4,4,0,0,1,272.62,206.24Zm-3.43-3.47c.18.58,1.09,3.17,3.35,3.21h.08a3.81,3.81,0,0,0,3.68-3.2l-2.78-1.48Z" transform="translate(-199.07 -184.58)"/><path class="cls-4" d="M276.45,202.69s.84,3.37,3.5,3.42a3.91,3.91,0,0,0,3.91-3.4L281,201.16Z" transform="translate(-199.07 -184.58)"/><path class="cls-5" d="M280,206.24h-.09c-2.72-.05-3.61-3.48-3.62-3.52l0-.11L281,201l3,1.62,0,.09A4,4,0,0,1,280,206.24Zm-3.43-3.47c.18.58,1.1,3.17,3.35,3.21H280a3.81,3.81,0,0,0,3.68-3.2l-2.78-1.48Z" transform="translate(-199.07 -184.58)"/><path class="cls-4" d="M283.86,202.69s.84,3.37,3.5,3.42a3.91,3.91,0,0,0,3.91-3.4l-2.91-1.55Z" transform="translate(-199.07 -184.58)"/><path class="cls-5" d="M287.44,206.24h-.09c-2.71-.05-3.61-3.48-3.62-3.52l0-.11,4.66-1.58,3.05,1.62,0,.09A4,4,0,0,1,287.44,206.24ZM284,202.77c.17.58,1.09,3.17,3.34,3.21h.09a3.83,3.83,0,0,0,3.68-3.2l-2.78-1.48Z" transform="translate(-199.07 -184.58)"/><path class="cls-4" d="M291.27,202.69s.85,3.37,3.5,3.42a3.91,3.91,0,0,0,3.91-3.4l-2.91-1.55Z" transform="translate(-199.07 -184.58)"/><path class="cls-5" d="M294.86,206.24h-.09c-2.72-.05-3.61-3.48-3.62-3.52l0-.11,4.66-1.58,3.05,1.62,0,.09A4,4,0,0,1,294.86,206.24Zm-3.43-3.47c.17.58,1.09,3.17,3.34,3.21h.09a3.83,3.83,0,0,0,3.68-3.2l-2.78-1.48Z" transform="translate(-199.07 -184.58)"/><path class="cls-4" d="M235.68,200.22s.85,3.37,3.5,3.42a3.91,3.91,0,0,0,3.91-3.4l-2.91-1.55Z" transform="translate(-199.07 -184.58)"/><path class="cls-5" d="M239.27,203.77h-.09c-2.72-.06-3.62-3.49-3.62-3.52l0-.11,4.66-1.59,3.05,1.62,0,.1A4,4,0,0,1,239.27,203.77Zm-3.43-3.47c.17.58,1.09,3.17,3.34,3.21h.09a3.84,3.84,0,0,0,3.68-3.2l-2.78-1.48Z" transform="translate(-199.07 -184.58)"/><path class="cls-4" d="M243.09,200.22s.85,3.37,3.5,3.42a3.91,3.91,0,0,0,3.91-3.4l-2.91-1.55Z" transform="translate(-199.07 -184.58)"/><path class="cls-5" d="M246.68,203.77h-.09c-2.72-.06-3.61-3.49-3.62-3.52l0-.11,4.66-1.59,3.05,1.62,0,.1A4,4,0,0,1,246.68,203.77Zm-3.43-3.47c.18.58,1.09,3.17,3.34,3.21h.09a3.82,3.82,0,0,0,3.68-3.2l-2.78-1.48Z" transform="translate(-199.07 -184.58)"/><path class="cls-4" d="M250.5,200.22s.85,3.37,3.5,3.42a3.92,3.92,0,0,0,3.92-3.4L255,198.69Z" transform="translate(-199.07 -184.58)"/><path class="cls-5" d="M254.09,203.77H254c-2.72-.06-3.61-3.49-3.62-3.52l0-.11,4.66-1.59,3.05,1.62,0,.1A4,4,0,0,1,254.09,203.77Zm-3.43-3.47c.18.58,1.09,3.17,3.35,3.21h.08a3.82,3.82,0,0,0,3.68-3.2L255,198.83Z" transform="translate(-199.07 -184.58)"/><path class="cls-4" d="M257.92,200.22s.84,3.37,3.49,3.42a3.92,3.92,0,0,0,3.92-3.4l-2.91-1.55Z" transform="translate(-199.07 -184.58)"/><path class="cls-5" d="M261.5,203.77h-.09c-2.72-.06-3.61-3.49-3.62-3.52l0-.11,4.67-1.59,3,1.62,0,.1A4,4,0,0,1,261.5,203.77Zm-3.43-3.47c.18.58,1.09,3.17,3.35,3.21h.08a3.82,3.82,0,0,0,3.68-3.2l-2.78-1.48Z" transform="translate(-199.07 -184.58)"/><path class="cls-4" d="M265.33,200.22s.84,3.37,3.5,3.42a3.91,3.91,0,0,0,3.91-3.4l-2.91-1.55Z" transform="translate(-199.07 -184.58)"/><path class="cls-5" d="M268.91,203.77h-.09c-2.71-.06-3.61-3.49-3.62-3.52l0-.11,4.66-1.59,3.05,1.62,0,.1A4,4,0,0,1,268.91,203.77Zm-3.42-3.47c.17.58,1.09,3.17,3.34,3.21h.09a3.84,3.84,0,0,0,3.68-3.2l-2.78-1.48Z" transform="translate(-199.07 -184.58)"/><path class="cls-4" d="M272.74,200.22s.85,3.37,3.5,3.42a3.91,3.91,0,0,0,3.91-3.4l-2.91-1.55Z" transform="translate(-199.07 -184.58)"/><path class="cls-5" d="M276.33,203.77h-.09c-2.72-.06-3.61-3.49-3.62-3.52l0-.11,4.66-1.59,3.05,1.62,0,.1A4,4,0,0,1,276.33,203.77Zm-3.43-3.47c.17.58,1.09,3.17,3.34,3.21h.09a3.84,3.84,0,0,0,3.68-3.2l-2.78-1.48Z" transform="translate(-199.07 -184.58)"/><path class="cls-4" d="M280.15,200.22s.85,3.37,3.5,3.42a3.93,3.93,0,0,0,3.92-3.4l-2.92-1.55Z" transform="translate(-199.07 -184.58)"/><path class="cls-5" d="M283.74,203.77h-.09c-2.72-.06-3.61-3.49-3.62-3.52l0-.11,4.66-1.59,3,1.62,0,.1A4,4,0,0,1,283.74,203.77Zm-3.43-3.47c.18.58,1.09,3.17,3.34,3.21h.09a3.82,3.82,0,0,0,3.68-3.2l-2.78-1.48Z" transform="translate(-199.07 -184.58)"/><path class="cls-4" d="M287.57,200.22s.84,3.37,3.49,3.42a3.92,3.92,0,0,0,3.92-3.4l-2.92-1.55Z" transform="translate(-199.07 -184.58)"/><path class="cls-5" d="M291.15,203.77h-.09c-2.72-.06-3.61-3.49-3.62-3.52l0-.11,4.66-1.59,3.05,1.62,0,.1A4,4,0,0,1,291.15,203.77Zm-3.43-3.47c.18.58,1.09,3.17,3.35,3.21h.08a3.82,3.82,0,0,0,3.68-3.2l-2.78-1.48Z" transform="translate(-199.07 -184.58)"/><path class="cls-4" d="M239.39,197.74s.84,3.37,3.49,3.42a3.91,3.91,0,0,0,3.92-3.39l-2.92-1.55Z" transform="translate(-199.07 -184.58)"/><path class="cls-5" d="M243,201.29h-.09c-2.72,0-3.61-3.48-3.62-3.51l0-.12,4.67-1.58,3,1.62,0,.09A4,4,0,0,1,243,201.29Zm-3.43-3.46c.18.57,1.09,3.16,3.35,3.21H243a3.82,3.82,0,0,0,3.68-3.21l-2.78-1.47Z" transform="translate(-199.07 -184.58)"/><path class="cls-4" d="M246.8,197.74s.84,3.37,3.5,3.42a3.91,3.91,0,0,0,3.91-3.39l-2.91-1.55Z" transform="translate(-199.07 -184.58)"/><path class="cls-5" d="M250.38,201.29h-.09c-2.72,0-3.61-3.48-3.62-3.51l0-.12,4.66-1.58,3.05,1.62,0,.09A4,4,0,0,1,250.38,201.29ZM247,197.83c.17.57,1.09,3.16,3.34,3.21h.09a3.84,3.84,0,0,0,3.68-3.21l-2.78-1.47Z" transform="translate(-199.07 -184.58)"/><path class="cls-4" d="M254.21,197.74s.85,3.37,3.5,3.42a3.91,3.91,0,0,0,3.91-3.39l-2.91-1.55Z" transform="translate(-199.07 -184.58)"/><path class="cls-5" d="M257.8,201.29h-.09c-2.72,0-3.61-3.48-3.62-3.51l0-.12,4.66-1.58,3,1.62,0,.09A4,4,0,0,1,257.8,201.29Zm-3.43-3.46c.17.57,1.09,3.16,3.34,3.21h.09a3.84,3.84,0,0,0,3.68-3.21l-2.78-1.47Z" transform="translate(-199.07 -184.58)"/><path class="cls-4" d="M261.62,197.74s.85,3.37,3.5,3.42a3.91,3.91,0,0,0,3.91-3.39l-2.91-1.55Z" transform="translate(-199.07 -184.58)"/><path class="cls-5" d="M265.21,201.29h-.09c-2.72,0-3.61-3.48-3.62-3.51l0-.12,4.66-1.58,3.05,1.62,0,.09A4,4,0,0,1,265.21,201.29Zm-3.43-3.46c.18.57,1.09,3.16,3.34,3.21h.09a3.82,3.82,0,0,0,3.68-3.21l-2.78-1.47Z" transform="translate(-199.07 -184.58)"/><path class="cls-4" d="M269,197.74s.85,3.37,3.5,3.42a3.91,3.91,0,0,0,3.92-3.39l-2.92-1.55Z" transform="translate(-199.07 -184.58)"/><path class="cls-5" d="M272.62,201.29h-.09c-2.72,0-3.61-3.48-3.62-3.51l0-.12,4.66-1.58,3,1.62,0,.09A4,4,0,0,1,272.62,201.29Zm-3.43-3.46c.18.57,1.09,3.16,3.35,3.21h.08a3.82,3.82,0,0,0,3.68-3.21l-2.78-1.47Z" transform="translate(-199.07 -184.58)"/><path class="cls-4" d="M276.45,197.74s.84,3.37,3.5,3.42a3.91,3.91,0,0,0,3.91-3.39L281,196.22Z" transform="translate(-199.07 -184.58)"/><path class="cls-5" d="M280,201.29h-.09c-2.72,0-3.61-3.48-3.62-3.51l0-.12,4.67-1.58,3,1.62,0,.09A4,4,0,0,1,280,201.29Zm-3.43-3.46c.18.57,1.1,3.16,3.35,3.21H280a3.82,3.82,0,0,0,3.68-3.21l-2.78-1.47Z" transform="translate(-199.07 -184.58)"/><path class="cls-4" d="M283.86,197.74s.84,3.37,3.5,3.42a3.91,3.91,0,0,0,3.91-3.39l-2.91-1.55Z" transform="translate(-199.07 -184.58)"/><path class="cls-5" d="M287.44,201.29h-.09c-2.71,0-3.61-3.48-3.62-3.51l0-.12,4.66-1.58,3.05,1.62,0,.09A4,4,0,0,1,287.44,201.29ZM284,197.83c.17.57,1.09,3.16,3.34,3.21h.09a3.84,3.84,0,0,0,3.68-3.21l-2.78-1.47Z" transform="translate(-199.07 -184.58)"/><path class="cls-4" d="M291.27,197.74s.85,3.37,3.5,3.42a3.91,3.91,0,0,0,3.91-3.39l-2.91-1.55Z" transform="translate(-199.07 -184.58)"/><path class="cls-5" d="M294.86,201.29h-.09c-2.72,0-3.61-3.48-3.62-3.51l0-.12,4.66-1.58,3.05,1.62,0,.09A4,4,0,0,1,294.86,201.29Zm-3.43-3.46c.17.57,1.09,3.16,3.34,3.21h.09a3.84,3.84,0,0,0,3.68-3.21l-2.78-1.47Z" transform="translate(-199.07 -184.58)"/><path class="cls-4" d="M235.68,195.27s.85,3.37,3.5,3.42a3.91,3.91,0,0,0,3.91-3.4l-2.91-1.55Z" transform="translate(-199.07 -184.58)"/><path class="cls-5" d="M239.27,198.82h-.09c-2.72,0-3.62-3.48-3.62-3.52l0-.11,4.66-1.59,3.05,1.62,0,.1A4,4,0,0,1,239.27,198.82Zm-3.43-3.47c.17.58,1.09,3.17,3.34,3.21h.09a3.84,3.84,0,0,0,3.68-3.2l-2.78-1.48Z" transform="translate(-199.07 -184.58)"/><path class="cls-4" d="M243.09,195.27s.85,3.37,3.5,3.42a3.91,3.91,0,0,0,3.91-3.4l-2.91-1.55Z" transform="translate(-199.07 -184.58)"/><path class="cls-5" d="M246.68,198.82h-.09c-2.72,0-3.61-3.48-3.62-3.52l0-.11,4.66-1.59,3.05,1.62,0,.1A4,4,0,0,1,246.68,198.82Zm-3.43-3.47c.18.58,1.09,3.17,3.34,3.21h.09a3.82,3.82,0,0,0,3.68-3.2l-2.78-1.48Z" transform="translate(-199.07 -184.58)"/><path class="cls-4" d="M250.5,195.27s.85,3.37,3.5,3.42a3.91,3.91,0,0,0,3.92-3.4L255,193.74Z" transform="translate(-199.07 -184.58)"/><path class="cls-5" d="M254.09,198.82H254c-2.72,0-3.61-3.48-3.62-3.52l0-.11L255,193.6l3.05,1.62,0,.1A4,4,0,0,1,254.09,198.82Zm-3.43-3.47c.18.58,1.09,3.17,3.35,3.21h.08a3.82,3.82,0,0,0,3.68-3.2L255,193.88Z" transform="translate(-199.07 -184.58)"/><path class="cls-4" d="M257.92,195.27s.84,3.37,3.49,3.42a3.91,3.91,0,0,0,3.92-3.4l-2.91-1.55Z" transform="translate(-199.07 -184.58)"/><path class="cls-5" d="M261.5,198.82h-.09c-2.72,0-3.61-3.48-3.62-3.52l0-.11,4.67-1.59,3,1.62,0,.1A4,4,0,0,1,261.5,198.82Zm-3.43-3.47c.18.58,1.09,3.17,3.35,3.21h.08a3.82,3.82,0,0,0,3.68-3.2l-2.78-1.48Z" transform="translate(-199.07 -184.58)"/><path class="cls-4" d="M265.33,195.27s.84,3.37,3.5,3.42a3.91,3.91,0,0,0,3.91-3.4l-2.91-1.55Z" transform="translate(-199.07 -184.58)"/><path class="cls-5" d="M268.91,198.82h-.09c-2.71,0-3.61-3.48-3.62-3.52l0-.11,4.66-1.59,3.05,1.62,0,.1A4,4,0,0,1,268.91,198.82Zm-3.42-3.47c.17.58,1.09,3.17,3.34,3.21h.09a3.84,3.84,0,0,0,3.68-3.2l-2.78-1.48Z" transform="translate(-199.07 -184.58)"/><path class="cls-4" d="M272.74,195.27s.85,3.37,3.5,3.42a3.91,3.91,0,0,0,3.91-3.4l-2.91-1.55Z" transform="translate(-199.07 -184.58)"/><path class="cls-5" d="M276.33,198.82h-.09c-2.72,0-3.61-3.48-3.62-3.52l0-.11,4.66-1.59,3.05,1.62,0,.1A4,4,0,0,1,276.33,198.82Zm-3.43-3.47c.17.58,1.09,3.17,3.34,3.21h.09a3.84,3.84,0,0,0,3.68-3.2l-2.78-1.48Z" transform="translate(-199.07 -184.58)"/><path class="cls-4" d="M280.15,195.27s.85,3.37,3.5,3.42a3.93,3.93,0,0,0,3.92-3.4l-2.92-1.55Z" transform="translate(-199.07 -184.58)"/><path class="cls-5" d="M283.74,198.82h-.09c-2.72,0-3.61-3.48-3.62-3.52l0-.11,4.66-1.59,3,1.62,0,.1A4,4,0,0,1,283.74,198.82Zm-3.43-3.47c.18.58,1.09,3.17,3.34,3.21h.09a3.82,3.82,0,0,0,3.68-3.2l-2.78-1.48Z" transform="translate(-199.07 -184.58)"/><path class="cls-4" d="M287.57,195.27s.84,3.37,3.49,3.42a3.91,3.91,0,0,0,3.92-3.4l-2.92-1.55Z" transform="translate(-199.07 -184.58)"/><path class="cls-5" d="M291.15,198.82h-.09c-2.72,0-3.61-3.48-3.62-3.52l0-.11,4.66-1.59,3.05,1.62,0,.1A4,4,0,0,1,291.15,198.82Zm-3.43-3.47c.18.58,1.09,3.17,3.35,3.21a3.82,3.82,0,0,0,3.76-3.2l-2.78-1.48Z" transform="translate(-199.07 -184.58)"/><path class="cls-4" d="M239.39,192.8s.84,3.37,3.49,3.42a3.93,3.93,0,0,0,3.92-3.4l-2.92-1.55Z" transform="translate(-199.07 -184.58)"/><path class="cls-5" d="M243,196.34h-.09c-2.72-.05-3.61-3.48-3.62-3.51l0-.12,4.67-1.58,3,1.62,0,.09A4,4,0,0,1,243,196.34Zm-3.43-3.46c.18.58,1.09,3.16,3.35,3.21H243a3.82,3.82,0,0,0,3.68-3.2l-2.78-1.48Z" transform="translate(-199.07 -184.58)"/><path class="cls-4" d="M246.8,192.8s.84,3.37,3.5,3.42a3.92,3.92,0,0,0,3.91-3.4l-2.91-1.55Z" transform="translate(-199.07 -184.58)"/><path class="cls-5" d="M250.38,196.34h-.09c-2.72-.05-3.61-3.48-3.62-3.51l0-.12,4.66-1.58,3.05,1.62,0,.09A4,4,0,0,1,250.38,196.34ZM247,192.88c.17.58,1.09,3.16,3.34,3.21h.09a3.84,3.84,0,0,0,3.68-3.2l-2.78-1.48Z" transform="translate(-199.07 -184.58)"/><path class="cls-4" d="M254.21,192.8s.85,3.37,3.5,3.42a3.92,3.92,0,0,0,3.91-3.4l-2.91-1.55Z" transform="translate(-199.07 -184.58)"/><path class="cls-5" d="M257.8,196.34h-.09c-2.72-.05-3.61-3.48-3.62-3.51l0-.12,4.66-1.58,3,1.62,0,.09A4,4,0,0,1,257.8,196.34Zm-3.43-3.46c.17.58,1.09,3.16,3.34,3.21h.09a3.84,3.84,0,0,0,3.68-3.2l-2.78-1.48Z" transform="translate(-199.07 -184.58)"/><path class="cls-4" d="M261.62,192.8s.85,3.37,3.5,3.42a3.92,3.92,0,0,0,3.91-3.4l-2.91-1.55Z" transform="translate(-199.07 -184.58)"/><path class="cls-5" d="M265.21,196.34h-.09c-2.72-.05-3.61-3.48-3.62-3.51l0-.12,4.66-1.58,3.05,1.62,0,.09A4,4,0,0,1,265.21,196.34Zm-3.43-3.46c.18.58,1.09,3.16,3.34,3.21h.09a3.82,3.82,0,0,0,3.68-3.2l-2.78-1.48Z" transform="translate(-199.07 -184.58)"/><path class="cls-4" d="M269,192.8s.85,3.37,3.5,3.42a3.93,3.93,0,0,0,3.92-3.4l-2.92-1.55Z" transform="translate(-199.07 -184.58)"/><path class="cls-5" d="M272.62,196.34h-.09c-2.72-.05-3.61-3.48-3.62-3.51l0-.12,4.66-1.58,3,1.62,0,.09A4,4,0,0,1,272.62,196.34Zm-3.43-3.46c.18.58,1.09,3.16,3.35,3.21h.08a3.82,3.82,0,0,0,3.68-3.2l-2.78-1.48Z" transform="translate(-199.07 -184.58)"/><path class="cls-4" d="M276.45,192.8s.84,3.37,3.5,3.42a3.92,3.92,0,0,0,3.91-3.4L281,191.27Z" transform="translate(-199.07 -184.58)"/><path class="cls-5" d="M280,196.34h-.09c-2.72-.05-3.61-3.48-3.62-3.51l0-.12,4.67-1.58,3,1.62,0,.09A4,4,0,0,1,280,196.34Zm-3.43-3.46c.18.58,1.1,3.16,3.35,3.21H280a3.82,3.82,0,0,0,3.68-3.2l-2.78-1.48Z" transform="translate(-199.07 -184.58)"/><path class="cls-4" d="M283.86,192.8s.84,3.37,3.5,3.42a3.92,3.92,0,0,0,3.91-3.4l-2.91-1.55Z" transform="translate(-199.07 -184.58)"/><path class="cls-5" d="M287.44,196.34h-.09c-2.71-.05-3.61-3.48-3.62-3.51l0-.12,4.66-1.58,3.05,1.62,0,.09A4,4,0,0,1,287.44,196.34ZM284,192.88c.17.58,1.09,3.16,3.34,3.21h.09a3.84,3.84,0,0,0,3.68-3.2l-2.78-1.48Z" transform="translate(-199.07 -184.58)"/><path class="cls-4" d="M291.27,192.8s.85,3.37,3.5,3.42a3.92,3.92,0,0,0,3.91-3.4l-2.91-1.55Z" transform="translate(-199.07 -184.58)"/><path class="cls-5" d="M294.86,196.34h-.09c-2.72-.05-3.61-3.48-3.62-3.51l0-.12,4.66-1.58,3.05,1.62,0,.09A4,4,0,0,1,294.86,196.34Zm-3.43-3.46c.17.58,1.09,3.16,3.34,3.21h.09a3.84,3.84,0,0,0,3.68-3.2l-2.78-1.48Z" transform="translate(-199.07 -184.58)"/><path class="cls-4" d="M235.68,191s.85,3.36,3.5,3.41a3.91,3.91,0,0,0,3.91-3.39l-2.91-1.55Z" transform="translate(-199.07 -184.58)"/><path class="cls-5" d="M239.27,194.56h-.09c-2.72-.05-3.62-3.48-3.62-3.51l0-.12,4.66-1.58,3.05,1.62,0,.09A4,4,0,0,1,239.27,194.56Zm-3.43-3.46c.17.57,1.09,3.16,3.34,3.21h.09A3.84,3.84,0,0,0,243,191.1l-2.78-1.47Z" transform="translate(-199.07 -184.58)"/><path class="cls-4" d="M243.09,191s.85,3.36,3.5,3.41A3.91,3.91,0,0,0,250.5,191l-2.91-1.55Z" transform="translate(-199.07 -184.58)"/><path class="cls-5" d="M246.68,194.56h-.09c-2.72-.05-3.61-3.48-3.62-3.51l0-.12,4.66-1.58,3.05,1.62,0,.09A4,4,0,0,1,246.68,194.56Zm-3.43-3.46c.18.57,1.09,3.16,3.34,3.21h.09a3.83,3.83,0,0,0,3.68-3.21l-2.78-1.47Z" transform="translate(-199.07 -184.58)"/><path class="cls-4" d="M250.5,191s.85,3.36,3.5,3.41a3.91,3.91,0,0,0,3.92-3.39L255,189.49Z" transform="translate(-199.07 -184.58)"/><path class="cls-5" d="M254.09,194.56H254c-2.72-.05-3.61-3.48-3.62-3.51l0-.12,4.66-1.58,3.05,1.62,0,.09A4,4,0,0,1,254.09,194.56Zm-3.43-3.46c.18.57,1.09,3.16,3.35,3.21h.08a3.82,3.82,0,0,0,3.68-3.21L255,189.63Z" transform="translate(-199.07 -184.58)"/><path class="cls-4" d="M257.92,191s.84,3.36,3.49,3.41a3.91,3.91,0,0,0,3.92-3.39l-2.91-1.55Z" transform="translate(-199.07 -184.58)"/><path class="cls-5" d="M261.5,194.56h-.09c-2.72-.05-3.61-3.48-3.62-3.51l0-.12,4.67-1.58,3,1.62,0,.09A4,4,0,0,1,261.5,194.56Zm-3.43-3.46c.18.57,1.09,3.16,3.35,3.21h.08a3.82,3.82,0,0,0,3.68-3.21l-2.78-1.47Z" transform="translate(-199.07 -184.58)"/><path class="cls-4" d="M265.33,191s.84,3.36,3.5,3.41a3.91,3.91,0,0,0,3.91-3.39l-2.91-1.55Z" transform="translate(-199.07 -184.58)"/><path class="cls-5" d="M268.91,194.56h-.09c-2.71-.05-3.61-3.48-3.62-3.51l0-.12,4.66-1.58,3.05,1.62,0,.09A4,4,0,0,1,268.91,194.56Zm-3.42-3.46c.17.57,1.09,3.16,3.34,3.21h.09a3.84,3.84,0,0,0,3.68-3.21l-2.78-1.47Z" transform="translate(-199.07 -184.58)"/><path class="cls-4" d="M272.74,191s.85,3.36,3.5,3.41a3.91,3.91,0,0,0,3.91-3.39l-2.91-1.55Z" transform="translate(-199.07 -184.58)"/><path class="cls-5" d="M276.33,194.56h-.09c-2.72-.05-3.61-3.48-3.62-3.51l0-.12,4.66-1.58L280.3,191l0,.09A4,4,0,0,1,276.33,194.56Zm-3.43-3.46c.17.57,1.09,3.16,3.34,3.21h.09A3.84,3.84,0,0,0,280,191.1l-2.78-1.47Z" transform="translate(-199.07 -184.58)"/><path class="cls-4" d="M280.15,191s.85,3.36,3.5,3.41a3.93,3.93,0,0,0,3.92-3.39l-2.92-1.55Z" transform="translate(-199.07 -184.58)"/><path class="cls-5" d="M283.74,194.56h-.09c-2.72-.05-3.61-3.48-3.62-3.51l0-.12,4.66-1.58,3,1.62,0,.09A4,4,0,0,1,283.74,194.56Zm-3.43-3.46c.18.57,1.09,3.16,3.34,3.21h.09a3.82,3.82,0,0,0,3.68-3.21l-2.78-1.47Z" transform="translate(-199.07 -184.58)"/><path class="cls-4" d="M287.57,191s.84,3.36,3.49,3.41A3.91,3.91,0,0,0,295,191l-2.92-1.55Z" transform="translate(-199.07 -184.58)"/><path class="cls-5" d="M291.15,194.56h-.09c-2.72-.05-3.61-3.48-3.62-3.51l0-.12,4.66-1.58,3.05,1.62,0,.09A4,4,0,0,1,291.15,194.56Zm-3.43-3.46c.18.57,1.09,3.16,3.35,3.21a3.83,3.83,0,0,0,3.76-3.21l-2.78-1.47Z" transform="translate(-199.07 -184.58)"/></g><rect class="cls-6" x="16.84" y="10.67" width="10.21" height="25.52"/><rect class="cls-7" x="14.75" y="7.05" width="14.38" height="4.89" rx="1.18"/><rect class="cls-7" x="16.84" y="16.15" width="10.21" height="0.96"/><rect class="cls-7" x="21.46" y="10.59" width="0.96" height="6.03"/><rect class="cls-7" x="21.46" y="21.28" width="0.96" height="5.66"/><rect class="cls-7" x="16.84" y="21.2" width="10.21" height="0.96"/><rect class="cls-7" x="16.84" y="26.25" width="10.21" height="0.96"/><rect class="cls-7" x="16.84" y="30.67" width="10.21" height="0.96"/><polygon class="cls-6" points="89.07 130.59 8.11 130.59 8.11 42.25 48.59 2.96 89.07 43.73 89.07 130.59"/><rect class="cls-7" x="8.11" y="83.59" width="80.96" height="6.09"/><path class="cls-8" d="M222.8,297.3a.18.18,0,0,1-.15-.07.21.21,0,0,1,0-.29l5-4.87a.21.21,0,0,1,.29,0,.22.22,0,0,1,0,.3l-5,4.87A.2.2,0,0,1,222.8,297.3Z" transform="translate(-199.07 -184.58)"/><path class="cls-8" d="M231.28,299a.22.22,0,0,1-.15-.06.22.22,0,0,1,0-.3l5-4.87a.22.22,0,0,1,.3,0,.2.2,0,0,1,0,.29l-5,4.87A.24.24,0,0,1,231.28,299Z" transform="translate(-199.07 -184.58)"/><path class="cls-9" d="M28.8,96.28h.72A9.75,9.75,0,0,1,39.27,106v24.56a0,0,0,0,1,0,0H19.05a0,0,0,0,1,0,0V106A9.75,9.75,0,0,1,28.8,96.28Z"/><path class="cls-10" d="M28.86,98.25h.61a8.25,8.25,0,0,1,8.25,8.25v23.8a.29.29,0,0,1-.29.29H20.9a.29.29,0,0,1-.29-.29V106.5A8.25,8.25,0,0,1,28.86,98.25Z"/><path class="cls-11" d="M221.16,307.53a.15.15,0,0,1-.11,0,.17.17,0,0,1,0-.21l11.9-11.8a.15.15,0,0,1,.21.21l-11.9,11.8A.14.14,0,0,1,221.16,307.53Z" transform="translate(-199.07 -184.58)"/><path class="cls-11" d="M221.16,307.56a.21.21,0,0,1-.13-.05.18.18,0,0,1,0-.25l11.9-11.8a.18.18,0,0,1,.25.25l-11.9,11.8A.18.18,0,0,1,221.16,307.56Zm11.9-12.09-.09,0-11.89,11.81a.11.11,0,0,0,0,.16.14.14,0,0,0,.17,0l11.89-11.81a.11.11,0,0,0,0-.16Z" transform="translate(-199.07 -184.58)"/><path class="cls-11" d="M228,304.9l-.05,0a.07.07,0,0,1,0-.1l6.16-5.73a.07.07,0,0,1,.1.1l-6.15,5.73A.07.07,0,0,1,228,304.9Z" transform="translate(-199.07 -184.58)"/><path class="cls-11" d="M228,305a.18.18,0,0,1-.1,0,.16.16,0,0,1,0-.11.12.12,0,0,1,0-.1L234,299a.14.14,0,0,1,.21,0,.12.12,0,0,1,.05.1.16.16,0,0,1-.05.11l-6.15,5.73A.21.21,0,0,1,228,305Z" transform="translate(-199.07 -184.58)"/><path class="cls-11" d="M224.14,300.2a.13.13,0,0,1-.08,0,.1.1,0,0,1,0-.15l8.94-8.54a.12.12,0,0,1,.16,0,.11.11,0,0,1,0,.15l-8.95,8.54A.11.11,0,0,1,224.14,300.2Z" transform="translate(-199.07 -184.58)"/><path class="cls-11" d="M224.14,300.27a.21.21,0,0,1-.13,0,.19.19,0,0,1,0-.13.21.21,0,0,1,0-.13l9-8.54a.2.2,0,0,1,.26,0,.15.15,0,0,1,.05.12.19.19,0,0,1-.05.13l-8.95,8.54A.19.19,0,0,1,224.14,300.27Zm9-8.74h0l-8.95,8.54v0s0,0,0,0h0l8.94-8.54s0,0,0,0v0Z" transform="translate(-199.07 -184.58)"/><rect class="cls-12" x="57.53" y="99.59" width="18.95" height="18.15"/><path class="cls-13" d="M262.54,290.77a.18.18,0,0,1-.1,0,.13.13,0,0,1,0-.19l3.14-3.06a.13.13,0,0,1,.19.19l-3.15,3.06A.18.18,0,0,1,262.54,290.77Z" transform="translate(-199.07 -184.58)"/><path class="cls-13" d="M264.5,294.09a.15.15,0,0,1-.09,0,.14.14,0,0,1,0-.19l3.15-3.06a.12.12,0,0,1,.18,0,.13.13,0,0,1,0,.18l-3.15,3.06A.1.1,0,0,1,264.5,294.09Z" transform="translate(-199.07 -184.58)"/><path class="cls-13" d="M261.09,293.88a.11.11,0,0,1-.09,0,.13.13,0,0,1,0-.19l10-8.91a.14.14,0,0,1,.19,0,.14.14,0,0,1,0,.18l-10,8.92A.14.14,0,0,1,261.09,293.88Z" transform="translate(-199.07 -184.58)"/><rect class="cls-9" x="66.48" y="99.59" width="1.06" height="18.71"/><rect class="cls-9" x="57.53" y="104.6" width="18.95" height="1.06"/><rect class="cls-9" x="57.53" y="110.71" width="18.95" height="1.06"/><rect class="cls-9" x="55.53" y="96.1" width="22.95" height="3.49"/><rect class="cls-9" x="55.53" y="116.56" width="22.95" height="3.49"/><rect class="cls-12" x="16.66" y="47.62" width="19.78" height="24.6"/><path class="cls-13" d="M221.69,244.84a.12.12,0,0,1-.08,0,.12.12,0,0,1,0-.16l2.8-2.72a.12.12,0,0,1,.17,0,.11.11,0,0,1,0,.16l-2.79,2.72A.18.18,0,0,1,221.69,244.84Z" transform="translate(-199.07 -184.58)"/><path class="cls-13" d="M225.13,245.3a.09.09,0,0,1-.08,0,.1.1,0,0,1,0-.16l2.8-2.72a.11.11,0,0,1,.16,0,.12.12,0,0,1,0,.17l-2.8,2.72A.11.11,0,0,1,225.13,245.3Z" transform="translate(-199.07 -184.58)"/><path class="cls-13" d="M220.41,247.61a.18.18,0,0,1-.09,0,.12.12,0,0,1,0-.17l8.86-7.92a.12.12,0,0,1,.17,0,.11.11,0,0,1,0,.16l-8.86,7.93A.11.11,0,0,1,220.41,247.61Z" transform="translate(-199.07 -184.58)"/><rect class="cls-9" x="26.12" y="47.62" width="0.86" height="25.77"/><rect class="cls-9" x="16.7" y="55.36" width="19.69" height="0.86"/><rect class="cls-9" x="16.7" y="63.62" width="19.69" height="0.86"/><path class="cls-9" d="M235.27,259.14H216A1.17,1.17,0,0,1,214.8,258h0a1.16,1.16,0,0,1,1.17-1.16h19.3a1.16,1.16,0,0,1,1.16,1.16h0A1.16,1.16,0,0,1,235.27,259.14Z" transform="translate(-199.07 -184.58)"/><rect class="cls-12" x="60.75" y="47.62" width="19.78" height="24.6"/><path class="cls-13" d="M265.78,244.84a.12.12,0,0,1-.08,0,.1.1,0,0,1,0-.16l2.8-2.72a.1.1,0,0,1,.16,0,.12.12,0,0,1,0,.16l-2.8,2.72A.12.12,0,0,1,265.78,244.84Z" transform="translate(-199.07 -184.58)"/><path class="cls-13" d="M269.22,245.3a.1.1,0,0,1-.09,0,.12.12,0,0,1,0-.16l2.8-2.72a.12.12,0,1,1,.16.17l-2.79,2.72Z" transform="translate(-199.07 -184.58)"/><path class="cls-13" d="M264.49,247.61a.12.12,0,0,1-.08,0,.12.12,0,0,1,0-.17l8.86-7.92a.1.1,0,0,1,.16,0,.11.11,0,0,1,0,.16l-8.86,7.93A.11.11,0,0,1,264.49,247.61Z" transform="translate(-199.07 -184.58)"/><rect class="cls-9" x="70.21" y="47.62" width="0.86" height="25.77"/><rect class="cls-9" x="60.79" y="55.36" width="19.69" height="0.86"/><rect class="cls-9" x="60.79" y="63.62" width="19.69" height="0.86"/><path class="cls-9" d="M279.35,259.14h-19.3a1.16,1.16,0,0,1-1.16-1.17h0a1.16,1.16,0,0,1,1.16-1.16h19.3a1.17,1.17,0,0,1,1.17,1.16h0A1.17,1.17,0,0,1,279.35,259.14Z" transform="translate(-199.07 -184.58)"/><rect class="cls-7" x="67.71" y="36.99" width="6.7" height="3.51"/><rect class="cls-7" x="10" y="92.71" width="6.7" height="3.51"/><rect class="cls-7" x="8.1" y="96.95" width="3.82" height="3.51"/><rect class="cls-7" x="85.25" y="108.96" width="3.82" height="3.51"/><rect class="cls-7" x="77.38" y="41.78" width="3.82" height="3.51"/><rect class="cls-7" x="33.73" y="32.47" width="5.25" height="3.51"/><path class="cls-14" d="M207.18,226.84v6.43L246,196.86a2.49,2.49,0,0,1,3.41,0l38.78,36.41v-5l-39.28-38.66Z" transform="translate(-199.07 -184.58)"/><path class="cls-15" d="M246.88,184.9l-46.24,45a1.12,1.12,0,0,0,.78,1.93h4.36a1.09,1.09,0,0,0,.77-.31l40.34-38.38a1.12,1.12,0,0,1,1.54,0l40.33,38.38a1.13,1.13,0,0,0,.78.31h4.36a1.13,1.13,0,0,0,.78-1.93l-46.24-45A1.12,1.12,0,0,0,246.88,184.9Z" transform="translate(-199.07 -184.58)"/><path class="cls-16" d="M296.14,315.41a6.21,6.21,0,0,0,4.79-5.58,2.88,2.88,0,0,0-.2-1.34,2.55,2.55,0,0,0-2.48-1.27,7.62,7.62,0,0,0-2.78.93c2.11-2.74,3.69-6.43,2.28-9.59a2.46,2.46,0,0,0-2-1.66c-1,0-1.68.88-2.2,1.69a43.15,43.15,0,0,0-3.48,6.54c-.37-2.38-1.12-5-3.16-6.23a1.61,1.61,0,0,0-1-.3,1.57,1.57,0,0,0-.87.48c-1.77,1.72-1.61,4.56-1.32,7-.54-1.63-2.75-2.24-4.31-1.5a5.7,5.7,0,0,0-2.8,4.12,6.19,6.19,0,0,0,.39,4c.63,1.23,2,2.76,3.39,2.67" transform="translate(-199.07 -184.58)"/><path class="cls-16" d="M203,315.12a5.08,5.08,0,0,1-3.91-4.56,2.3,2.3,0,0,1,.17-1.1,2.06,2.06,0,0,1,2-1,6.29,6.29,0,0,1,2.27.76c-1.72-2.24-3-5.25-1.87-7.83A2,2,0,0,1,203.3,300c.8,0,1.38.72,1.81,1.38a35.5,35.5,0,0,1,2.84,5.34c.3-1.94.91-4.06,2.58-5.09a1.29,1.29,0,0,1,.82-.24,1.23,1.23,0,0,1,.7.39c1.45,1.41,1.32,3.73,1.08,5.73a2.6,2.6,0,0,1,3.52-1.23,4.66,4.66,0,0,1,2.29,3.36,5,5,0,0,1-.32,3.3c-.51,1-1.65,2.26-2.77,2.18" transform="translate(-199.07 -184.58)"/></g></g></svg>